<svg width="24" height="24" viewBox="0 0 24 24" fill="none" xmlns="http://www.w3.org/2000/svg">
<path d="M12.6279 17.6513C12.6354 17.9647 12.5204 18.7027 12.383 19.2102C12.263 19.6556 12.1331 19.7411 11.9881 19.9715V19.9948C11.9856 19.9896 11.9831 19.9871 11.9806 19.9819C11.9756 19.9871 11.9731 19.9948 11.9681 20V19.9637C11.8257 19.7359 11.6958 19.6478 11.5733 19.2024C11.4359 18.6949 11.3209 17.9569 11.3284 17.6436L11.3384 15.6548H12.6204L12.6279 17.6513Z" fill="#313325"/>
<path d="M14.5496 14.0131C14.5871 14.0597 14.642 14.1348 14.7045 14.2254C14.787 14.3471 15.0344 14.72 15.3292 15.5461C15.3992 15.7403 15.5342 16.0433 15.6191 16.3462C15.6341 16.4032 15.5866 16.4576 15.5317 16.4446C15.4667 16.4291 15.3942 16.4291 15.3517 16.3877C14.3871 15.4762 14.2172 14.7537 14.1822 14.5439C14.1847 14.487 14.2022 14.3368 14.3122 14.1944C14.3971 14.0856 14.4971 14.0338 14.5496 14.0131Z" fill="#313325"/>
<path d="M9.44919 13.8629C9.49917 13.8836 9.60163 13.9354 9.69159 14.0442C9.80155 14.1866 9.81904 14.3368 9.82154 14.3938C9.78656 14.6035 9.61412 15.3234 8.65202 16.2375C8.60704 16.2789 8.53707 16.2789 8.4721 16.2944C8.41712 16.3074 8.36965 16.253 8.38464 16.196C8.46711 15.8931 8.59955 15.5901 8.66952 15.3959C8.9644 14.5698 9.2118 14.197 9.29427 14.0753C9.35674 13.9846 9.41171 13.9121 9.44919 13.8629Z" fill="#313325"/>
<path fill-rule="evenodd" clip-rule="evenodd" d="M11.9831 8.28774C12.0581 8.28774 12.1031 8.29034 12.1031 8.29034C12.6229 8.31623 13.8199 8.52598 14.2247 9.86732C14.5696 11.0093 13.9148 12.304 14.0473 12.4775C14.5795 13.1767 13.8549 14.285 13.7574 14.3756C13.58 14.5388 13.0127 14.2047 13.1027 14.3782C13.1701 14.5101 13.2325 15.497 13.2326 15.4995H13.0577L12.9727 15.1551L12.8228 15.1525L12.7928 15.4995H12.4954L12.4654 15.168L12.363 15.1525L12.348 15.4995H12.1006L12.0881 15.1447H11.8857L11.8732 15.4995H11.6258L11.6108 15.1525L11.5083 15.168L11.4784 15.4995H11.171L11.141 15.1525L10.991 15.1551L10.9061 15.4995H10.7312C10.7313 15.4968 10.7937 14.5101 10.8611 14.3782C10.9511 14.2073 10.3838 14.5413 10.2064 14.3756C10.1089 14.2849 9.38425 13.1767 9.91651 12.4775C10.049 12.304 9.39422 11.0119 9.73907 9.86732C10.1414 8.52597 11.3409 8.31882 11.8582 8.29034C11.8584 8.29032 11.9034 8.28774 11.9781 8.28774H11.9831ZM12.0031 13.5573C11.9606 13.5832 11.9232 13.6117 11.8932 13.6454C11.6683 13.8966 11.6608 14.2436 11.6708 14.4119C11.6708 14.4326 11.6958 14.4429 11.7083 14.4248C11.7382 14.3808 11.7807 14.329 11.8382 14.2824C11.9007 14.2306 11.9581 14.1995 12.0031 14.1814C12.0506 14.1995 12.1081 14.2332 12.1681 14.2824C12.2255 14.329 12.268 14.3808 12.298 14.4248C12.3105 14.4429 12.3355 14.4352 12.3355 14.4119C12.3455 14.2436 12.338 13.8966 12.1131 13.6454C12.0856 13.6143 12.0456 13.5858 12.0031 13.5573ZM10.4638 12.7054C10.4563 12.7054 10.4463 12.708 10.4388 12.7106C10.2888 12.7727 10.2414 12.8737 10.2289 12.9048C10.1439 13.1042 10.2539 13.4253 10.5388 13.6299C10.5462 13.635 10.5562 13.6402 10.5637 13.6402C10.6962 13.6609 11.0185 13.692 11.3459 13.4822C11.4808 13.3968 11.5808 13.2906 11.6508 13.2026C11.6783 13.1663 11.6683 13.1146 11.6308 13.0938C11.4909 13.011 11.3209 12.9229 11.1185 12.853C10.8686 12.765 10.6437 12.7235 10.4638 12.7054ZM13.5025 12.708C13.3226 12.7261 13.0977 12.7676 12.8478 12.8556C12.6479 12.9281 12.4754 13.0136 12.3355 13.0964C12.3005 13.1171 12.293 13.1689 12.318 13.2026C12.388 13.2906 12.4879 13.3968 12.6229 13.4822C12.9502 13.6894 13.2751 13.6609 13.4051 13.6402C13.415 13.6376 13.4225 13.635 13.43 13.6299C13.7149 13.4253 13.8249 13.1042 13.7374 12.9074C13.7249 12.8763 13.6774 12.7753 13.5275 12.7132C13.52 12.708 13.51 12.708 13.5025 12.708Z" fill="#313325"/>
<path d="M15.3342 13.7205C15.3767 13.7127 15.4167 13.736 15.4317 13.7775C15.4967 13.9561 15.5617 14.096 15.6091 14.1944C15.7916 14.5647 15.9415 14.72 16.1039 15.1136C16.1389 15.1965 16.1664 15.2716 16.1814 15.3363C16.1964 15.3778 16.1764 15.427 16.1364 15.4451C15.9315 15.5383 15.7141 15.3985 15.6116 15.3441C15.5991 15.3363 15.5866 15.326 15.5792 15.313C15.4942 15.1784 15.4092 15.0929 15.3243 14.9375C15.1593 14.6346 15.0219 14.342 14.9019 14.0623C14.8894 14.0312 14.8944 13.995 14.9169 13.9691C14.9594 13.9199 15.0269 13.8526 15.1193 13.8008C15.1993 13.7542 15.2743 13.7334 15.3342 13.7205Z" fill="#313325"/>
<path d="M8.55958 13.6273C8.57457 13.5858 8.61704 13.5625 8.65702 13.5703C8.717 13.5832 8.79196 13.6065 8.87193 13.6506C8.96439 13.7024 9.03187 13.7671 9.07436 13.8189C9.09685 13.8448 9.10183 13.881 9.08934 13.9121C8.97188 14.1892 8.83195 14.4844 8.66702 14.7874C8.58205 14.9453 8.49708 15.0282 8.41212 15.1628C8.40463 15.1758 8.39214 15.1861 8.37465 15.1913C8.2697 15.2483 8.05477 15.3855 7.84986 15.2923C7.80988 15.2742 7.78989 15.2276 7.80488 15.1836C7.82487 15.124 7.85236 15.0489 7.88735 14.9634C8.05228 14.5698 8.19972 14.4145 8.38214 14.0442C8.43212 13.9484 8.4946 13.8059 8.55958 13.6273Z" fill="#313325"/>
<path d="M15.8216 13.5496C15.949 13.4797 16.0714 13.4823 16.1239 13.4874C16.2713 13.6842 16.4188 13.894 16.5662 14.1219C16.7761 14.4404 16.9561 14.7485 17.111 15.0411C17.0485 15.0644 16.9711 15.0851 16.8786 15.0955C16.6887 15.1162 16.5338 15.0748 16.4413 15.0411C16.3788 14.9557 16.3163 14.8651 16.2539 14.7692C16.0065 14.3886 15.819 14.0131 15.6791 13.6687C15.7091 13.6325 15.7541 13.5884 15.8216 13.5496Z" fill="#313325"/>
<path d="M7.87235 13.3373C7.92732 13.3321 8.04728 13.3269 8.17473 13.3994C8.2422 13.4382 8.28968 13.4848 8.31467 13.5185C8.17473 13.8629 7.98731 14.2384 7.73991 14.619C7.67744 14.7148 7.61496 14.8055 7.55249 14.8909C7.46002 14.9246 7.30509 14.966 7.11517 14.9453C7.02271 14.9376 6.94523 14.9142 6.88276 14.8909C7.04019 14.5983 7.22013 14.2902 7.42754 13.9717C7.57747 13.7438 7.72491 13.5341 7.87235 13.3373Z" fill="#313325"/>
<path d="M16.7911 13.244C17.0535 13.4486 17.3334 13.692 17.6158 13.9743C17.7882 14.1452 17.9432 14.3135 18.0831 14.4818C18.0381 14.5439 17.9307 14.6656 17.7532 14.7356C17.6208 14.7873 17.5034 14.7899 17.4334 14.7874C17.2734 14.6708 17.1635 14.5543 17.0935 14.474C16.8611 14.2047 16.9386 14.1711 16.5412 13.6428C16.4838 13.5651 16.4188 13.4848 16.3713 13.433C16.3488 13.4071 16.3538 13.3657 16.3838 13.3502C16.4213 13.3295 16.4663 13.3087 16.5162 13.2906C16.6262 13.2518 16.7237 13.244 16.7911 13.244Z" fill="#313325"/>
<path d="M7.20513 13.0886C7.2726 13.0886 7.37006 13.0964 7.48001 13.1353C7.52999 13.1534 7.57498 13.1741 7.61246 13.1948C7.63995 13.2129 7.64745 13.2518 7.62496 13.2777C7.57748 13.3321 7.51249 13.4123 7.45502 13.4874C7.05769 14.0157 7.13765 14.0494 6.90026 14.3161C6.83279 14.3963 6.72033 14.5129 6.56039 14.6294C6.49042 14.632 6.37297 14.6294 6.24053 14.5776C6.06311 14.5051 5.95564 14.3834 5.91066 14.3238C6.0531 14.1607 6.21055 13.9898 6.38048 13.8189C6.66286 13.5366 6.94274 13.2958 7.20513 13.0886Z" fill="#313325"/>
<path d="M16.9986 12.6562C17.071 12.5811 17.171 12.5966 17.1785 12.5992C17.2585 12.6925 17.3909 12.8375 17.5658 13.0006C17.9457 13.3554 18.1706 13.4615 18.5279 13.7723C18.6604 13.8862 18.8678 14.039 19.0802 14.2746C19.1127 14.3135 19.1127 14.373 19.0777 14.4093C19.0302 14.4611 18.9602 14.5232 18.8778 14.5595C18.7303 14.6268 18.5954 14.6087 18.5454 14.5983C18.373 14.4792 18.1881 14.3394 18.0031 14.1711C17.5108 13.7257 17.1735 13.2518 16.9486 12.8634C16.9286 12.7883 16.9461 12.7106 16.9986 12.6562Z" fill="#313325"/>
<path d="M6.8203 12.4516C6.82785 12.449 6.92777 12.4309 7.00022 12.5086C7.05269 12.563 7.07019 12.6407 7.0502 12.7158C6.8253 13.1042 6.48792 13.5781 5.99563 14.0261C5.81071 14.1944 5.62578 14.3342 5.45335 14.4533C5.40337 14.4637 5.26843 14.4818 5.12099 14.4145C5.03853 14.3782 4.96855 14.3161 4.92107 14.2643C4.88608 14.2254 4.8861 14.1685 4.91858 14.1296C5.131 13.8914 5.33841 13.7386 5.47085 13.6247C5.8282 13.3139 6.05311 13.2078 6.43295 12.853C6.60787 12.6899 6.74033 12.5449 6.8203 12.4516Z" fill="#313325"/>
<path d="M17.5833 11.9363C17.6083 11.9001 17.6583 11.8949 17.6933 11.9234C17.7807 11.9959 17.9007 12.0943 18.0456 12.2056C18.6304 12.6536 18.9477 12.7909 19.49 13.1845C19.6475 13.2958 19.8724 13.4667 20.1297 13.692C20.1597 13.7179 20.1672 13.7645 20.1447 13.7982C20.0923 13.881 20.0023 13.9924 19.8624 14.0675C19.64 14.1892 19.4201 14.1555 19.3326 14.14C18.8253 14.0519 18.6479 13.5781 17.9781 12.9488C17.7482 12.7339 17.5633 12.5992 17.4109 12.4905C17.3809 12.4698 17.3684 12.4309 17.3809 12.3973C17.4034 12.3299 17.4084 12.2238 17.4534 12.1409C17.4958 12.0606 17.5408 11.9933 17.5833 11.9363Z" fill="#313325"/>
<path d="M6.30301 11.7758C6.3355 11.7473 6.38547 11.7525 6.41296 11.7887C6.45544 11.8431 6.50043 11.913 6.54291 11.9933C6.58539 12.0762 6.59288 12.1797 6.61537 12.2497C6.62786 12.2833 6.61537 12.3222 6.58539 12.3429C6.43295 12.4516 6.24802 12.5863 6.01812 12.8012C5.3484 13.4279 5.17097 13.9043 4.66118 13.9976C4.57622 14.0105 4.35381 14.0468 4.1314 13.9251C3.99147 13.8474 3.90151 13.7386 3.84903 13.6558C3.82654 13.6221 3.83403 13.5755 3.86401 13.5496C4.1264 13.3217 4.34883 13.1508 4.50626 13.0369C5.05103 12.6407 5.3659 12.506 5.95065 12.058C6.09559 11.9493 6.21555 11.8509 6.30301 11.7758Z" fill="#313325"/>
<path d="M14.3621 12.5164C14.4121 12.6018 14.4421 12.7132 14.4996 12.8012C14.672 13.0679 14.8694 13.2932 15.0419 13.5263C14.9944 13.6299 14.8994 13.6998 14.792 13.7075C14.667 13.7179 14.5821 13.6351 14.5671 13.6221C14.5471 13.4564 14.5021 13.2414 14.3996 13.0084C14.3472 12.8867 14.2872 12.7831 14.2322 12.6976C14.2322 12.6899 14.2222 12.6044 14.2822 12.55C14.3122 12.5241 14.3471 12.519 14.3621 12.5164Z" fill="#313325"/>
<path d="M9.63912 12.3662C9.65412 12.3662 9.68911 12.374 9.71909 12.3998C9.77906 12.4542 9.76905 12.5397 9.76905 12.5475C9.71158 12.6329 9.65411 12.7365 9.60163 12.8582C9.49918 13.0912 9.45418 13.3062 9.43419 13.4719C9.41919 13.4848 9.33423 13.5651 9.20929 13.5573C9.10184 13.5496 9.00687 13.4797 8.96189 13.3761C9.13681 13.143 9.33424 12.9177 9.50416 12.651C9.55914 12.563 9.58664 12.4516 9.63912 12.3662Z" fill="#313325"/>
<path d="M14.7995 12.0451C14.9619 12.3144 15.1318 12.5138 15.3842 12.8116C15.4842 12.9281 15.6991 13.1016 15.829 13.2181C15.8565 13.244 15.8515 13.2906 15.8165 13.3088C15.7441 13.345 15.6291 13.389 15.5492 13.4072C15.4417 13.4305 15.3218 13.4667 15.2918 13.4538C15.2293 13.4149 15.1618 13.2596 15.0993 13.2078C14.747 12.9074 14.6046 12.5708 14.5071 12.2989C14.5221 12.2626 14.5471 12.216 14.5896 12.172C14.6645 12.0891 14.752 12.0555 14.7995 12.0451Z" fill="#313325"/>
<path d="M18.0481 11.1906C18.1106 11.2191 18.213 11.2656 18.3355 11.3252C19.0627 11.68 19.3476 11.9182 19.9723 12.2367C20.1223 12.3144 20.3472 12.4232 20.6346 12.5423C20.697 12.607 20.7745 12.7028 20.8395 12.8349C20.9219 12.9954 20.9544 13.143 20.9694 13.244C20.9069 13.2829 20.812 13.3321 20.6895 13.3606C20.5046 13.4046 20.3497 13.3761 20.2647 13.3554C19.6043 12.9494 19.5878 12.9387 19.5875 12.9385C18.4005 12.1953 18.6629 12.2082 18.2281 12.014C18.0581 11.9389 17.8407 11.8561 17.7982 11.6748C17.7732 11.5634 17.8057 11.4003 17.9107 11.289C17.9606 11.2346 18.0131 11.2061 18.0481 11.1906Z" fill="#313325"/>
<path d="M9.20429 11.8949C9.24927 11.9079 9.33423 11.9389 9.4117 12.0218C9.45168 12.0684 9.47918 12.115 9.49417 12.1487C9.39671 12.4206 9.25428 12.7572 8.90193 13.0576C8.83945 13.1094 8.76947 13.2621 8.70949 13.3036C8.682 13.3165 8.56206 13.2803 8.45211 13.257C8.37215 13.2388 8.25719 13.1948 8.18472 13.1586C8.14974 13.1405 8.14474 13.0938 8.17473 13.0679C8.30467 12.9514 8.51958 12.7779 8.61954 12.6614C8.87443 12.3636 9.04436 12.1642 9.20429 11.8949Z" fill="#313325"/>
<path d="M5.94815 11.0378C5.98313 11.0559 6.03561 11.0844 6.08559 11.1362C6.19054 11.2501 6.22305 11.4107 6.19806 11.522C6.15557 11.7033 5.94065 11.7835 5.76823 11.8612C5.33591 12.058 5.5983 12.0451 4.40879 12.7831C4.40879 12.7831 4.40379 12.7883 3.73158 13.2C3.64661 13.2207 3.49167 13.2466 3.30675 13.2052C3.18431 13.1767 3.08934 13.1275 3.02686 13.0886C3.03936 12.9877 3.07435 12.8401 3.15682 12.6795C3.22179 12.55 3.29925 12.4542 3.36173 12.3895C3.6491 12.2704 3.874 12.159 4.02394 12.0839C4.64868 11.7654 4.93357 11.5298 5.66077 11.1724C5.78321 11.1129 5.88567 11.0663 5.94815 11.0378Z" fill="#313325"/>
<path d="M15.1618 11.4858C15.3342 11.667 15.5417 11.8612 15.7866 12.0554C16.1089 12.3092 16.4188 12.4983 16.6912 12.6407C16.7312 12.6614 16.7437 12.7132 16.7212 12.752C16.6587 12.8582 16.5213 13.0317 16.2914 13.0861C16.1664 13.1171 16.0589 13.0964 15.9915 13.0783C15.7741 12.8918 15.5417 12.6795 15.3043 12.4102C15.1343 12.2212 15.0394 12.0347 14.9119 11.8586C14.9219 11.8094 14.9094 11.6385 15.0544 11.5401C15.0943 11.5142 15.1318 11.4987 15.1618 11.4858Z" fill="#313325"/>
<path d="M8.83446 11.3433C8.86694 11.3537 8.90442 11.3692 8.9419 11.3951C9.08934 11.4935 9.07435 11.6644 9.08435 11.7136C8.9569 11.8897 8.85944 12.0762 8.69201 12.2652C8.45461 12.5345 8.22221 12.7468 8.0048 12.9333C7.93733 12.9514 7.82987 12.9695 7.70493 12.9411C7.47503 12.8867 7.33757 12.7106 7.2751 12.6096C7.25261 12.5708 7.2651 12.519 7.30508 12.4983C7.57746 12.3558 7.88735 12.1668 8.20971 11.913C8.45461 11.7188 8.66203 11.5246 8.83446 11.3433Z" fill="#313325"/>
<path d="M18.5004 10.6468C18.5454 10.626 18.5979 10.6338 18.6379 10.6623C18.9078 10.8617 19.1427 10.9213 19.3101 11.0067C19.9848 11.3537 20.3522 11.3951 21.1443 11.8146C21.3467 11.9234 21.5142 12.0192 21.6291 12.0917C21.6641 12.115 21.6891 12.1513 21.6966 12.1927C21.7091 12.2729 21.6891 12.3273 21.6816 12.348C21.6166 12.4982 21.3992 12.5863 21.1493 12.519C21.1393 12.5164 21.1318 12.5112 21.1218 12.5086C20.4896 12.2704 20.2097 12.0865 19.8849 11.9389C19.5375 11.781 19.0377 11.5298 18.5554 11.2139C18.4605 11.1517 18.378 11.0948 18.3105 11.0456C18.248 11.0015 18.2305 10.9109 18.273 10.8461C18.293 10.8151 18.318 10.784 18.348 10.7529C18.4005 10.7011 18.4554 10.6675 18.5004 10.6468Z" fill="#313325"/>
<path d="M5.36089 10.5147C5.40087 10.4836 5.45335 10.4784 5.49833 10.4992C5.54331 10.5199 5.59829 10.5536 5.65077 10.6053C5.68076 10.6364 5.70574 10.6675 5.72573 10.6986C5.76821 10.7633 5.75073 10.8539 5.68826 10.8979C5.61829 10.9471 5.53832 11.0041 5.44336 11.0663C4.96356 11.3822 4.46376 11.6334 4.1139 11.7939C3.78654 11.9415 3.50666 12.1254 2.87693 12.3636C2.86693 12.3662 2.85943 12.3714 2.84943 12.3739C2.59954 12.4387 2.37965 12.3532 2.31717 12.2031C2.30967 12.1823 2.28967 12.1305 2.30217 12.0477C2.30966 12.0037 2.33465 11.9674 2.36964 11.9441C2.48709 11.8716 2.65202 11.7732 2.85444 11.667C3.64411 11.2475 4.01396 11.2061 4.68868 10.8591C4.85611 10.7736 5.09101 10.7141 5.36089 10.5147Z" fill="#313325"/>
<path d="M15.4392 10.9549C15.7141 11.131 16.0315 11.3149 16.3963 11.4884C16.7137 11.6385 17.0635 11.7318 17.3384 11.825C17.3484 12.0503 17.1985 12.2756 17.0336 12.3584C16.9336 12.4102 16.7862 12.3766 16.7312 12.3688C16.5712 12.2807 16.4563 12.2082 16.2888 12.1021C15.9015 11.8561 15.5616 11.5997 15.2643 11.3511C15.2593 11.3304 15.2293 11.2242 15.2818 11.1103C15.3293 11.0067 15.4167 10.9653 15.4392 10.9549Z" fill="#313325"/>
<path d="M8.55956 10.8073C8.58205 10.8177 8.66702 10.8591 8.717 10.9627C8.77198 11.0766 8.74199 11.1802 8.73449 11.2035C8.43711 11.4521 8.09725 11.7084 7.70991 11.9544C7.54249 12.0606 7.42754 12.1331 7.26761 12.2212C7.21263 12.2289 7.06519 12.26 6.96523 12.2108C6.8003 12.128 6.65035 11.9027 6.66035 11.68C6.93523 11.5867 7.28509 11.4935 7.60245 11.3433C7.9648 11.1698 8.28467 10.986 8.55956 10.8073Z" fill="#313325"/>
<path d="M23.9007 7.77762C24.243 7.69993 23.6258 8.63991 23.1785 8.72019C22.6287 8.81341 21.8191 8.84707 20.9119 8.9869C19.5375 9.19923 18.5529 9.09825 17.4209 8.95324C16.5263 8.8393 15.4867 8.816 15.2793 9.20442C15.1493 9.44524 15.0094 9.54882 15.0369 9.84401C15.0619 10.0952 14.9769 10.2065 15.0794 10.3697C15.1268 10.4448 15.1793 10.3801 15.1968 10.5691C15.2143 10.7607 15.2593 10.8047 15.0893 11.131C14.8894 11.5117 14.5446 11.9441 14.3671 12.1124C14.3272 12.1487 14.2672 12.1072 14.2847 12.0554C14.4046 11.6955 14.7195 10.7115 14.5146 9.8259C14.4021 9.34684 13.9723 9.28987 13.8973 8.69429C13.8224 8.10389 15.4967 8.08058 15.804 8.08058C16.1139 8.08058 17.8707 8.3473 19.3451 8.38096C20.8195 8.41462 21.6441 8.29552 23.9007 7.77762Z" fill="#313325"/>
<path d="M0.822773 8.5674C0.375463 8.4897 -0.241762 7.54975 0.0980751 7.62742C2.35464 8.14531 3.17931 8.26444 4.65369 8.23078C6.12807 8.19712 7.88733 7.9304 8.19471 7.93039C8.50208 7.93039 10.1764 7.9537 10.1014 8.54409C10.0265 9.13967 9.59663 9.19665 9.48418 9.6757C9.27926 10.5613 9.59413 11.5453 9.71408 11.9053C9.73157 11.9571 9.67159 11.9985 9.63161 11.9622C9.45419 11.7965 9.10933 11.3615 8.90942 10.9808C8.73949 10.6545 8.75448 10.6027 8.80196 10.4189C8.84444 10.2583 8.86444 10.3723 8.91941 10.2195C8.98688 10.0382 8.93942 9.94501 8.96191 9.69383C8.9894 9.39605 8.84945 9.29505 8.71951 9.05424C8.5096 8.66581 7.47252 8.68912 6.5779 8.80306C5.44587 8.94807 4.46127 9.04646 3.08684 8.83672C2.17972 8.69688 1.37005 8.66321 0.822773 8.5674Z" fill="#313325"/>
<path d="M18.5679 10.1418C18.5879 10.0926 18.6379 10.0719 18.6879 10.0874C19.2301 10.2558 19.555 10.4215 20.2847 10.6027C20.9919 10.7762 21.6466 10.9135 22.2389 10.9964C22.2589 11.0093 22.5487 11.1543 22.5263 11.3977C22.5063 11.6463 22.1464 11.9312 21.7466 11.869C20.8919 11.4909 20.0323 11.1051 19.1677 10.7089C18.9852 10.6235 18.8003 10.5406 18.6179 10.4551C18.6029 10.437 18.5379 10.349 18.5479 10.2273C18.5504 10.1962 18.5579 10.1651 18.5679 10.1418Z" fill="#313325"/>
<path d="M5.31092 9.93466C5.3584 9.91913 5.41087 9.93983 5.43086 9.98903C5.44086 10.0123 5.44835 10.0408 5.45085 10.0745C5.46084 10.1988 5.39587 10.2842 5.38088 10.3024C5.19846 10.3852 5.01603 10.4707 4.83361 10.5484C3.97147 10.9445 3.11183 11.3304 2.25468 11.7085C1.85486 11.7732 1.49501 11.4858 1.47251 11.2372C1.45252 11.0041 1.73986 10.8591 1.75989 10.8436C2.34964 10.7633 3.00437 10.6261 3.71407 10.45C4.44627 10.2687 4.77115 10.1056 5.31092 9.93466Z" fill="#313325"/>
<path d="M15.4142 10.2299C15.879 10.4422 16.3938 10.6493 16.9636 10.8332C17.2484 10.9264 17.5283 11.0041 17.7957 11.074C17.7982 11.1025 17.8132 11.2708 17.6958 11.4107C17.5583 11.5764 17.2634 11.5401 17.2434 11.5375C17.0685 11.5013 16.9786 11.4754 16.7836 11.4081C16.2039 11.2113 15.7966 10.9187 15.4642 10.6623C15.4392 10.5846 15.3617 10.4681 15.3892 10.3231C15.3942 10.2894 15.4042 10.2583 15.4142 10.2299Z" fill="#313325"/>
<path d="M8.58455 10.0797C8.59454 10.1082 8.60205 10.1392 8.60954 10.1729C8.63953 10.3179 8.55958 10.437 8.53458 10.5121C8.20222 10.7659 7.79738 11.0611 7.21512 11.2579C7.0202 11.3226 6.92774 11.3511 6.75531 11.3874C6.7353 11.39 6.44043 11.4262 6.30299 11.2605C6.18555 11.1207 6.20054 10.9523 6.20304 10.9238C6.47043 10.8565 6.74782 10.7762 7.0352 10.683C7.60496 10.4992 8.11974 10.292 8.58455 10.0797Z" fill="#313325"/>
<path d="M18.9477 9.67572C19.9073 9.87252 20.9769 10.0072 22.1389 10.0175C22.3588 10.0201 22.5737 10.0175 22.7837 10.0123C22.8336 10.0434 22.9861 10.1444 23.0011 10.305C23.0235 10.5173 22.7961 10.784 22.4138 10.8358C21.5891 10.6882 20.6995 10.4785 19.7599 10.1755C19.4326 10.0693 19.1177 9.95795 18.8153 9.84401C18.8153 9.82589 18.8178 9.78964 18.8403 9.75339C18.8778 9.69384 18.9352 9.67831 18.9477 9.67572Z" fill="#313325"/>
<path d="M15.3518 9.5307C15.7391 9.64205 16.1614 9.74821 16.6187 9.83366C17.2459 9.95278 17.8932 10.0175 18.418 10.0486C18.438 10.1185 18.398 10.2583 18.343 10.4085C18.258 10.639 18.0156 10.7944 17.7283 10.7995C17.4384 10.7141 17.141 10.6234 16.8386 10.5225C16.2739 10.336 15.7391 10.134 15.2368 9.92947C15.2293 9.90616 15.1918 9.80776 15.2293 9.69383C15.2643 9.59543 15.3318 9.54624 15.3518 9.5307Z" fill="#313325"/>
<path d="M5.05102 9.52292C5.06601 9.52551 5.1235 9.54106 5.15848 9.60062C5.18097 9.63686 5.18347 9.67311 5.18347 9.69124C4.8786 9.80777 4.56623 9.91652 4.23887 10.0227C3.29926 10.3257 2.40962 10.538 1.58496 10.6804C1.20262 10.6286 0.975218 10.3619 0.997704 10.1496C1.0127 9.99422 1.16513 9.89064 1.21511 9.85956C1.42752 9.86474 1.64244 9.86734 1.85984 9.86475C3.01936 9.85439 4.08892 9.72231 5.05102 9.52292Z" fill="#313325"/>
<path d="M8.64202 9.3805C8.66452 9.39604 8.73448 9.44525 8.76697 9.54365C8.80695 9.65759 8.76948 9.75598 8.75948 9.77929C8.25719 9.98386 7.72241 10.1832 7.15764 10.3723C6.85527 10.4733 6.55789 10.5639 6.26801 10.6494C5.98313 10.6442 5.73824 10.4888 5.65077 10.2583C5.59829 10.1082 5.55582 9.96832 5.57581 9.89841C6.10059 9.86733 6.74782 9.80259 7.37505 9.68348C7.83236 9.59544 8.25469 9.49185 8.64202 9.3805Z" fill="#313325"/>
<path d="M15.6816 9.18371C15.7891 9.05424 15.9715 9.00503 16.1564 9.04646C16.4338 9.08012 16.7212 9.10601 17.0135 9.12932C17.6708 9.17852 18.2955 9.19924 18.8878 9.19406C18.8728 9.28988 18.8328 9.44783 18.7153 9.59543C18.4255 9.95537 17.9357 9.89064 17.8957 9.88546C17.6158 9.83885 17.3284 9.78706 17.0335 9.73009C16.5487 9.63428 16.0839 9.52811 15.6441 9.41159C15.6116 9.40382 15.5941 9.37015 15.6016 9.33908C15.6141 9.29247 15.6391 9.2355 15.6816 9.18371Z" fill="#313325"/>
<path d="M22.8336 8.95064C22.9411 8.95064 23.1535 8.9636 23.3609 9.09825C23.4209 9.13709 23.4684 9.17852 23.5058 9.21477C23.5283 9.23549 23.5308 9.27174 23.5158 9.29764C23.4709 9.37532 23.4109 9.46595 23.3259 9.55658C23.1935 9.699 23.056 9.78706 22.9586 9.83885C22.8061 9.84662 22.5512 9.85697 22.2389 9.84661C21.3692 9.82071 20.9969 9.76374 19.9348 9.58248C19.7499 9.55141 19.4725 9.54365 19.1302 9.5307C19.0927 9.52811 19.0627 9.49703 19.0677 9.45819C19.0727 9.42194 19.0852 9.37273 19.1227 9.3313C19.1826 9.2614 19.2626 9.25363 19.2776 9.25362C20.4621 9.15263 21.6491 9.05163 22.8336 8.95064Z" fill="#313325"/>
<path d="M7.84237 8.89885C8.02729 8.85483 8.2097 8.90663 8.31716 9.0361C8.35964 9.08789 8.38465 9.14486 8.39714 9.19147C8.40464 9.22254 8.38463 9.25621 8.35465 9.26398C7.91483 9.37791 7.45002 9.48407 6.96523 9.57988C6.67285 9.63944 6.38547 9.69123 6.10309 9.73525C6.06311 9.74043 5.57331 9.80517 5.28343 9.44782C5.16598 9.30281 5.12599 9.14227 5.111 9.04646C5.70325 9.05163 6.32799 9.03091 6.98522 8.98171C7.27759 8.9584 7.56498 8.92992 7.84237 8.89885Z" fill="#313325"/>
<path d="M1.16264 8.80303C2.34715 8.90402 3.53415 9.00502 4.71866 9.10601C4.73365 9.10601 4.81363 9.11379 4.87361 9.18371C4.91108 9.22514 4.92358 9.27175 4.92858 9.31059C4.93108 9.34943 4.90358 9.3805 4.8661 9.38309C4.52374 9.39604 4.24386 9.40382 4.06143 9.43489C3.00188 9.61615 2.62702 9.67311 1.75739 9.699C1.44502 9.70936 1.19263 9.69901 1.03519 9.69383C0.935235 9.64204 0.800293 9.55399 0.667848 9.41157C0.585384 9.32093 0.522898 9.23031 0.477917 9.15262C0.462927 9.12673 0.465441 9.09047 0.48793 9.06976C0.527913 9.02833 0.577892 8.98948 0.635365 8.95064C0.845276 8.81599 1.05519 8.80045 1.16264 8.80303Z" fill="#313325"/>
<path d="M11.9931 3.01036C12.0381 3.01553 12.1181 3.03107 12.1931 3.09581C12.308 3.19421 12.328 3.32627 12.3305 3.35735C12.393 3.36253 12.4555 3.36771 12.5179 3.37289C12.5454 3.37549 12.5679 3.39879 12.5679 3.42986V4.02803C12.5679 4.0591 12.5404 4.085 12.5104 4.085L12.3605 4.0824C12.2805 4.68834 12.253 5.0949 12.278 5.83808C12.2705 5.58949 12.268 6.19026 12.388 6.46215C12.7603 6.4751 13.1652 6.51652 13.53 6.52688C13.555 6.52688 13.575 6.5476 13.575 6.57349V6.85057C13.575 6.88941 13.545 6.92048 13.5075 6.92307L12.8503 6.99558L12.8078 7.41249C12.8003 7.49276 12.7703 7.6067 12.7203 7.73099C12.6828 7.82162 12.5879 8.0029 12.5879 8.0029L12.5904 8.223C12.4055 8.18157 12.238 8.16604 12.1131 8.15827C12.1131 8.15827 12.0681 8.15568 11.9931 8.15568H11.9881C11.9107 8.15568 11.8682 8.15827 11.8682 8.15827C11.7382 8.16604 11.5658 8.18416 11.3734 8.22818L11.3759 7.99771C11.3759 7.99771 11.2809 7.81645 11.2434 7.72582C11.1935 7.60412 11.1635 7.48759 11.156 7.40732L11.1135 6.99041L10.4563 6.91791C10.4188 6.91532 10.3888 6.88424 10.3888 6.8454H10.3938V6.56573C10.3938 6.53983 10.4138 6.51912 10.4388 6.51912C10.8061 6.50617 11.2085 6.46732 11.5808 6.45437C11.7008 6.18506 11.6982 5.58173 11.6908 5.83032C11.7157 5.08972 11.6883 4.68317 11.6083 4.07464L11.4584 4.07723C11.4259 4.07723 11.4009 4.05132 11.4009 4.02025V3.42209C11.4009 3.39361 11.4234 3.3677 11.4509 3.36511C11.5133 3.35993 11.5758 3.35477 11.6383 3.34959C11.6408 3.31851 11.6608 3.18386 11.7757 3.08805C11.8632 3.01296 11.9581 3.00259 11.9931 3V3.01036Z" fill="#313325"/>
</svg>
