<svg width="24" height="24" viewBox="0 0 24 24" fill="none" xmlns="http://www.w3.org/2000/svg">
<path d="M5.87025 18.923L5.64134 18.8677L5.74085 18.7764C5.88596 18.6433 5.87408 18.3986 5.71637 18.2723C5.54868 18.1379 5.3886 18.1474 5.24992 18.2997C5.12473 18.4373 5.10592 18.5561 5.1854 18.7073C5.21337 18.7605 5.22779 18.8127 5.21744 18.8232C5.17534 18.8661 4.1138 18.5902 4.04284 18.5179C4.01758 18.4922 4.04902 18.4422 4.12042 18.3946C4.27526 18.2913 4.28983 17.9937 4.14651 17.8616C3.92409 17.6567 3.56288 17.8339 3.56288 18.1479C3.56288 18.2407 3.54524 18.3167 3.52368 18.3167C3.46244 18.3167 3.01964 18.081 2.74257 17.9009L2.49161 17.7378L2.61316 17.6405C2.79662 17.4935 2.78342 17.2434 2.58574 17.121C2.45194 17.0381 2.42354 17.0357 2.30675 17.0972C2.23523 17.1349 2.1632 17.209 2.14668 17.262C2.09692 17.4217 2.00334 17.3741 1.70027 17.035C0.681299 15.8948 0.0965674 14.3551 0.0216568 12.6148L0 12.1117L0.254004 12.6388C0.6425 13.4449 1.01986 13.9873 1.60464 14.5802C2.44586 15.433 3.50233 15.9758 4.3439 15.9877C4.74162 15.9933 4.86674 15.9354 4.77552 15.7879C4.74746 15.7425 4.66323 15.6941 4.58836 15.6803L4.45223 15.6553L4.4565 15.297C4.45977 15.0221 4.48839 14.8773 4.57942 14.6752C4.8049 14.1744 5.35881 13.6689 5.6821 13.6689C5.88367 13.6689 5.91296 13.7299 5.74727 13.8046C5.58096 13.8795 5.47077 14.1104 5.40922 14.513C5.26678 15.4446 5.84477 15.9689 7.01427 15.9689C7.57614 15.9689 7.88017 15.8915 8.05245 15.7048C8.14072 15.6091 8.15433 15.5542 8.13195 15.3843C8.07207 14.9297 7.61616 14.8744 7.5097 15.3087C7.47899 15.4341 7.47262 15.4365 7.3482 15.371C7.17239 15.2784 6.76884 14.8217 6.66315 14.5957C6.47069 14.1841 6.40076 13.9134 6.37336 13.4738C6.34753 13.0594 6.38219 12.5277 6.43175 12.5781C6.44256 12.5892 6.47189 12.7081 6.49692 12.8425C6.56299 13.1973 6.71475 13.4937 6.94817 13.7241C7.20354 13.9761 7.39295 14.0712 7.79221 14.1479C8.36337 14.2577 8.97809 14.0952 9.37566 13.7295C9.75759 13.3781 10.0048 12.6153 9.89442 12.1286C9.8228 11.8127 9.77193 11.7524 9.57715 11.7524C9.46614 11.7524 9.4045 11.7816 9.36762 11.8518C9.3113 11.9589 9.34819 12.3083 9.42065 12.3539C9.57517 12.4511 9.32254 12.5497 8.74934 12.6158C8.01791 12.7002 7.1998 12.5437 6.50523 12.1867C6.20774 12.0338 5.78177 11.6525 5.87363 11.6213C5.90164 11.6118 6.09442 11.6482 6.30203 11.7021C7.56032 12.0293 8.45049 11.5565 8.66978 10.4447C8.74196 10.0787 8.69206 9.79682 8.51672 9.58022C8.34031 9.3623 8.16068 9.26359 7.79315 9.18261C7.06306 9.02174 6.37934 9.17276 6.03625 9.57066C5.85494 9.78093 5.81676 9.91263 5.81707 10.3269C5.81721 10.5048 5.80206 10.6503 5.78342 10.6503C5.76478 10.6503 5.6588 10.6199 5.54791 10.5826C5.43701 10.5454 5.09411 10.435 4.78591 10.3372C4.21717 10.1569 4.18629 10.1233 4.52281 10.0509C4.72249 10.008 4.94631 9.85456 4.94631 9.76062C4.94631 9.71429 4.89338 9.69201 4.78325 9.69201C4.66797 9.69201 4.57146 9.64844 4.45387 9.5433C4.25953 9.36956 4.24508 9.30869 4.39815 9.30869C4.56409 9.30869 4.81529 9.21192 4.93455 9.10204C5.14298 8.91001 5.03245 8.26184 4.75724 8.06229C4.65337 7.98698 4.55368 7.96784 4.28027 7.97072C3.69164 7.97693 3.40557 8.16551 3.51299 8.47652C3.55309 8.59264 3.59538 8.6159 3.85236 8.66323C4.01382 8.69296 4.15858 8.73018 4.17405 8.74593C4.22291 8.79568 3.90217 8.93703 3.4876 9.04844C2.81179 9.23005 2.74993 9.26883 2.80162 9.47854C2.83252 9.60393 3.0454 9.73569 3.38303 9.8384C3.49374 9.87208 3.57711 9.92167 3.56829 9.94861C3.5182 10.1016 2.61046 10.1675 2.05066 10.0588C1.57626 9.9667 0.899556 9.73871 0.899556 9.671C0.899556 9.61952 1.21774 8.71318 1.32112 8.47018C1.34354 8.41748 1.49211 8.01858 1.65126 7.58376C2.01508 6.58978 2.0363 6.53973 2.0625 6.61348C2.10155 6.7234 2.25592 6.67612 2.32617 6.53273C2.41476 6.35189 2.99618 5.57012 3.27281 5.25988C3.46253 5.04711 3.49201 5.02969 3.5364 5.10416C3.6058 5.22059 3.6664 5.21113 4.03533 5.02628C4.59044 4.74814 4.91943 4.6119 6.2193 4.12185L6.52766 4.0056L6.50871 4.13704L6.48977 4.26849L7.35321 4.26108C8.38053 4.25226 8.94601 4.30212 8.94601 4.40151C8.94601 4.43879 8.91753 4.46929 8.88272 4.46929C8.84791 4.46929 8.78304 4.51023 8.73857 4.56027C8.66167 4.6468 8.66298 4.65502 8.76527 4.72798C8.82443 4.77017 8.89742 4.80469 8.92748 4.80469C9.0058 4.80469 9.85182 5.16585 10.24 5.36501C10.7897 5.64698 11.3929 6.13055 11.3929 6.28919C11.3929 6.31102 11.2629 6.31688 11.1039 6.30221C10.6195 6.25748 10.4133 6.42865 10.3703 6.91129C10.3493 7.14757 10.3605 7.19848 10.4594 7.31553C10.6199 7.50556 10.9391 7.54051 11.128 7.38873C11.2767 7.26931 11.3929 7.03022 11.3929 6.84386C11.3929 6.66577 11.6251 6.55682 12.0046 6.55682C12.3841 6.55682 12.6163 6.66577 12.6163 6.84386C12.6163 7.32484 13.0864 7.63518 13.4676 7.40589C13.8122 7.19858 13.6492 6.41137 13.24 6.30679C13.1771 6.29071 13.011 6.28958 12.8709 6.30429C12.7309 6.31901 12.6163 6.31179 12.6163 6.28826C12.6163 6.13579 13.3836 5.52831 13.8398 5.31965C13.9303 5.27821 14.1421 5.18089 14.3103 5.10337C14.4785 5.02584 14.7538 4.91431 14.922 4.85552C15.3226 4.71551 15.3714 4.67368 15.2688 4.55825C15.2253 4.50932 15.1613 4.46929 15.1265 4.46929C15.0917 4.46929 15.0632 4.43888 15.0632 4.40172C15.0632 4.30543 15.6979 4.25161 16.7036 4.26261L17.5206 4.27156L17.494 4.13578L17.4673 4L17.7828 4.11905C19.109 4.61952 19.4457 4.75869 19.975 5.02502C20.3452 5.21126 20.4034 5.22053 20.4728 5.10417C20.5172 5.02968 20.5467 5.04707 20.7374 5.25989C21.0137 5.56833 21.5681 6.31662 21.6692 6.51766C21.7483 6.67515 21.9055 6.72942 21.9467 6.61349C21.9742 6.53602 22.0058 6.61186 22.4416 7.79938C22.5964 8.22103 22.8134 8.80976 22.9238 9.10767C23.096 9.57197 23.1152 9.6586 23.0583 9.71434C22.8935 9.87591 21.8032 10.1246 21.2745 10.1212C20.93 10.1189 20.4652 10.0227 20.4409 9.94861C20.4321 9.92168 20.5155 9.87239 20.6262 9.83907C20.9307 9.74742 21.1803 9.58939 21.2098 9.46945C21.259 9.26984 21.1913 9.22841 20.5216 9.04844C20.107 8.93704 19.7863 8.79569 19.8352 8.74593C19.8506 8.73018 19.9954 8.69297 20.1568 8.66323C20.4138 8.61591 20.4561 8.59265 20.4962 8.47653C20.6036 8.16551 20.3176 7.97694 19.7289 7.97073C19.4555 7.96785 19.3558 7.98699 19.252 8.06229C19.0859 8.18269 18.9688 8.4772 18.9688 8.77425C18.9688 9.05913 19.0793 9.18097 19.4158 9.2672C19.5452 9.30036 19.668 9.34161 19.6888 9.35888C19.7095 9.37616 19.6506 9.45817 19.5577 9.54115C19.4379 9.64828 19.3417 9.69202 19.2259 9.69202C18.915 9.69202 19.1035 9.93313 19.5081 10.0529C19.6514 10.0953 19.7687 10.1378 19.7687 10.1472C19.7687 10.1566 19.5199 10.2432 19.2158 10.3396C18.9117 10.4361 18.5722 10.5454 18.4613 10.5826C18.3504 10.6199 18.2442 10.6503 18.2254 10.6503C18.2065 10.6503 18.1904 10.4832 18.1894 10.279C18.1876 9.87236 18.1265 9.70537 17.9025 9.49423C17.641 9.24786 17.2429 9.11751 16.7572 9.11932C15.73 9.12314 15.1983 9.59326 15.3307 10.3804C15.43 10.9709 15.7212 11.4043 16.1757 11.6378C16.431 11.769 16.4754 11.776 17.013 11.7711C17.4501 11.7671 17.6429 11.7438 17.8512 11.6697C18.0456 11.6006 18.1218 11.5902 18.1218 11.6325C18.1218 11.9653 16.9693 12.5222 16.0828 12.6179C15.3472 12.6973 14.3288 12.5173 14.5885 12.3539C14.661 12.3083 14.6979 11.9589 14.6416 11.8518C14.5808 11.7361 14.3072 11.7126 14.223 11.8158C14.1027 11.9635 14.0559 12.3655 14.1201 12.7C14.2798 13.5319 14.7415 14.0021 15.5468 14.1532C15.9004 14.2196 16.3887 14.1579 16.6896 14.0088C17.0909 13.8101 17.4186 13.3454 17.5123 12.8425C17.5701 12.5321 17.5902 12.5143 17.6313 12.7374C17.6803 13.0031 17.6182 13.8994 17.5336 14.1481C17.3582 14.6635 16.9687 15.209 16.6598 15.3717C16.5325 15.4387 16.5283 15.4367 16.4982 15.2975C16.4657 15.1463 16.3185 15.0106 16.1873 15.0106C16.0391 15.0106 15.9052 15.1719 15.8772 15.3843C15.8438 15.6382 15.958 15.7837 16.2774 15.8946C16.5533 15.9903 17.4042 15.9939 17.6983 15.9007C18.4157 15.6732 18.7226 15.1937 18.6009 14.4903C18.5316 14.09 18.4153 13.8566 18.2541 13.7946C18.0691 13.7235 18.0893 13.669 18.3008 13.669C18.6512 13.669 19.1698 14.127 19.4152 14.6532C19.5097 14.856 19.5547 15.0391 19.5705 15.2852C19.5943 15.6549 19.6013 15.6425 19.3335 15.7022C19.1579 15.7414 19.1579 15.9051 19.3335 15.9743C19.5135 16.0452 20.0333 15.9864 20.4497 15.848C21.7604 15.4123 23.0031 14.2093 23.7442 12.659C23.8605 12.4156 23.9689 12.2037 23.985 12.1881C24.0264 12.1478 23.9756 13.052 23.9139 13.4533C23.8083 14.1399 23.5677 14.9619 23.3004 15.5489C23.0217 16.1611 22.1352 17.3584 21.9606 17.3584C21.928 17.3584 21.8775 17.3051 21.8483 17.2399C21.7804 17.0881 21.5787 17.0341 21.4189 17.1249C21.2406 17.2263 21.2254 17.5038 21.3908 17.6363L21.5121 17.7335L21.3816 17.8274C21.1565 17.9894 20.5367 18.3167 20.4551 18.3167C20.3926 18.3167 20.3868 18.2983 20.4258 18.224C20.4822 18.1167 20.4301 17.9391 20.3131 17.8403C20.2084 17.7518 19.9672 17.7653 19.8581 17.8659C19.7329 17.9812 19.7358 18.295 19.8628 18.3757C20.006 18.4668 19.976 18.5473 19.7788 18.6014C19.2466 18.7474 18.8144 18.8462 18.795 18.8265C18.7828 18.8141 18.7958 18.7605 18.8238 18.7073C18.9065 18.55 18.8827 18.4156 18.7502 18.2905C18.598 18.1468 18.4564 18.1412 18.2928 18.2723C18.1366 18.3974 18.1233 18.6432 18.2656 18.7744L18.3624 18.8636L18.2539 18.908C18.1942 18.9324 17.8404 18.9631 17.4678 18.9762L16.7903 19L16.8679 18.8873C17.0531 18.618 16.8824 18.2688 16.5656 18.2688C16.276 18.2688 16.0669 18.5568 16.1885 18.7882C16.2748 18.9523 16.2526 18.9846 16.087 18.9362C16.003 18.9117 15.8685 18.8917 15.7881 18.8917C15.6307 18.8917 14.7144 18.6689 14.5843 18.599C14.5146 18.5616 14.5215 18.5403 14.6431 18.4164C14.8283 18.2279 14.8283 18.0222 14.6433 17.8339C14.4565 17.6436 14.2565 17.6454 14.0665 17.8389C13.9502 17.9573 13.9274 18.0148 13.943 18.1504C13.9535 18.2419 13.9503 18.3167 13.9358 18.3167C13.8833 18.3167 13.436 18.0589 13.1592 17.8691C13.003 17.7619 12.709 17.5067 12.5059 17.3018L12.1366 16.9294L12.3039 16.7303C12.716 16.2402 12.4846 15.5352 11.9343 15.604C11.4681 15.6622 11.3418 16.2979 11.7096 16.7354L11.8784 16.9362L11.4796 17.3306C11.1203 17.686 10.3947 18.2047 10.1434 18.2859C10.0569 18.3139 10.0491 18.3001 10.0663 18.1506C10.0818 18.0148 10.0591 17.9573 9.94281 17.8389C9.75273 17.6454 9.55273 17.6436 9.36591 17.8339C9.18092 18.0222 9.18098 18.2279 9.36612 18.4164C9.48742 18.5399 9.49444 18.5615 9.42494 18.5976C9.16501 18.7325 7.76967 19.0111 7.76967 18.9281C7.76967 18.9046 7.79265 18.8417 7.82073 18.7882C8.01349 18.4215 7.41613 18.0652 7.16137 18.395C7.04697 18.5431 7.03863 18.6736 7.13192 18.8557L7.19943 18.9875L6.64932 18.9829C6.34676 18.9804 5.99615 18.9534 5.87025 18.923ZM3.07026 7.12422C3.36456 6.97188 3.56109 6.52581 3.36728 6.45008C3.21145 6.38919 2.83162 6.80602 2.7551 7.12189C2.72418 7.24952 2.72962 7.25652 2.83418 7.22363C2.89593 7.2042 3.00217 7.15946 3.07026 7.12422ZM21.2725 7.18846C21.268 7.04885 21.0498 6.69257 20.889 6.56226C20.6835 6.39577 20.5687 6.41657 20.5687 6.62028C20.5687 6.80346 20.7683 7.04476 21.0137 7.15829C21.2405 7.26319 21.2751 7.26722 21.2725 7.18846Z" fill="#313325"/>
</svg>
