<svg width="189" height="81" viewBox="0 0 189 81" fill="none" xmlns="http://www.w3.org/2000/svg">
<g clip-path="url(#clip0_172_5605)">
<rect opacity="0.25" width="16.311" height="112.106" transform="matrix(-0.783283 0.621666 0.387226 0.921985 165.628 -20.792)" fill="#211B11"/>
<rect opacity="0.25" width="16.311" height="112.106" transform="matrix(-0.783283 0.621666 0.387226 0.921985 197.081 -20.792)" fill="#211B11"/>
<rect opacity="0.25" width="16.311" height="112.106" transform="matrix(-0.783283 0.621666 0.387226 0.921985 134.175 -20.792)" fill="#211B11"/>
<rect opacity="0.25" width="16.311" height="112.106" transform="matrix(-0.783283 0.621666 0.387226 0.921985 102.721 -20.792)" fill="#211B11"/>
<rect opacity="0.25" width="16.311" height="112.106" transform="matrix(-0.783283 0.621666 0.387226 0.921985 71.2678 -20.792)" fill="#211B11"/>
<rect opacity="0.25" width="16.311" height="112.106" transform="matrix(-0.783283 0.621666 0.387226 0.921985 40.0813 -20.792)" fill="#211B11"/>
<rect opacity="0.25" width="16.311" height="112.106" transform="matrix(-0.783283 0.621666 0.387226 0.921985 8.0813 -20.792)" fill="#211B11"/>
<rect opacity="0.25" width="16.311" height="112.106" transform="matrix(-0.783283 0.621666 0.387226 0.921985 -22.9187 -20.792)" fill="#211B11"/>
</g>
<defs>
<clipPath id="clip0_172_5605">
<rect width="188.5" height="81" fill="white" transform="matrix(-1 0 0 1 188.5 0)"/>
</clipPath>
</defs>
</svg>
