<svg width="190" height="82" viewBox="0 0 190 82" fill="none" xmlns="http://www.w3.org/2000/svg">
<g clip-path="url(#clip0_1_576)">
<rect width="16.311" height="112.106" transform="matrix(0.783283 0.621666 -0.387226 0.921985 25.8721 -20.792)" fill="#211B11"/>
<rect width="16.311" height="112.106" transform="matrix(0.783283 0.621666 -0.387226 0.921985 -5.5813 -20.792)" fill="#211B11"/>
<rect width="16.311" height="112.106" transform="matrix(0.783283 0.621666 -0.387226 0.921985 57.3254 -20.792)" fill="#211B11"/>
<rect width="16.311" height="112.106" transform="matrix(0.783283 0.621666 -0.387226 0.921985 88.7788 -20.792)" fill="#211B11"/>
<rect width="16.311" height="112.106" transform="matrix(0.783283 0.621666 -0.387226 0.921985 120.232 -20.792)" fill="#211B11"/>
<rect width="16.311" height="112.106" transform="matrix(0.783283 0.621666 -0.387226 0.921985 151.419 -20.792)" fill="#211B11"/>
<rect width="16.311" height="112.106" transform="matrix(0.783283 0.621666 -0.387226 0.921985 183.419 -20.792)" fill="#211B11"/>
<rect width="16.311" height="112.106" transform="matrix(0.783283 0.621666 -0.387226 0.921985 214.419 -20.792)" fill="#211B11"/>
</g>
<defs>
<clipPath id="clip0_1_576">
<rect width="189.02" height="81.416" fill="white"/>
</clipPath>
</defs>
</svg>
