<svg width="189" height="81" viewBox="0 0 189 81" fill="none" xmlns="http://www.w3.org/2000/svg">
<g clip-path="url(#clip0_170_5585)">
<rect opacity="0.25" width="16.311" height="112.106" transform="matrix(0.783283 0.621666 -0.387226 0.921985 22.8721 -20.792)" fill="#211B11"/>
<rect opacity="0.25" width="16.311" height="112.106" transform="matrix(0.783283 0.621666 -0.387226 0.921985 -8.58127 -20.792)" fill="#211B11"/>
<rect opacity="0.25" width="16.311" height="112.106" transform="matrix(0.783283 0.621666 -0.387226 0.921985 54.3254 -20.792)" fill="#211B11"/>
<rect opacity="0.25" width="16.311" height="112.106" transform="matrix(0.783283 0.621666 -0.387226 0.921985 85.7788 -20.792)" fill="#211B11"/>
<rect opacity="0.25" width="16.311" height="112.106" transform="matrix(0.783283 0.621666 -0.387226 0.921985 117.232 -20.792)" fill="#211B11"/>
<rect opacity="0.25" width="16.311" height="112.106" transform="matrix(0.783283 0.621666 -0.387226 0.921985 148.419 -20.792)" fill="#211B11"/>
<rect opacity="0.25" width="16.311" height="112.106" transform="matrix(0.783283 0.621666 -0.387226 0.921985 180.419 -20.792)" fill="#211B11"/>
<rect opacity="0.25" width="16.311" height="112.106" transform="matrix(0.783283 0.621666 -0.387226 0.921985 211.419 -20.792)" fill="#211B11"/>
</g>
<defs>
<clipPath id="clip0_170_5585">
<rect width="188.5" height="81" fill="white"/>
</clipPath>
</defs>
</svg>
